<svg xmlns="http://www.w3.org/2000/svg" xmlns:svg="http://www.w3.org/2000/svg" id="svg2" width="100%" height="100%" enable-background="new 0 0 307 609" version="1.1" viewBox="0 0 400 795"><metadata id="metadata24"/><g id="g4" clip-rule="evenodd" transform="scale(1.3029316,1.3054187)" style="fill-rule:evenodd"><path id="path6" d="m 306,78 h -2 c -0.6,0 -1,0.4 -1,1 v 37 c 0,0.6 0.4,1 1,1 h 2 c 0.6,0 1,-0.4 1,-1 V 79 c 0,-0.6 -0.4,-1 -1,-1 z M 3,118 H 1 c -0.6,0 -1,0.4 -1,1 v 94 c 0,0.6 0.4,1 1,1 h 2 c 0.6,0 1,-0.4 1,-1 v -94 c 0,-0.6 -0.4,-1 -1,-1 z" style="fill:#333"/><path id="path8" d="M 304.9,29 C 304.5,20.9 299.2,14.6 291.8,12.1 272.1,4.4 218.3,0 153.5,0 88.7,0 34.9,4.4 15.1,12.1 7.8,14.6 2.5,20.9 2.1,29 H 2 v 551 h 0.1 c 0.4,8.1 5.7,14.4 13.1,16.9 19.8,7.7 73.6,12.1 138.4,12.1 64.8,0 118.6,-4.4 138.4,-12.1 7.3,-2.4 12.7,-8.7 13.1,-16.9 h 0.1 L 304.9,29 z"/><circle id="circle10" cx="52" cy="31" r="4" d="m 56,31 c 0,2.209139 -1.790861,4 -4,4 -2.209139,0 -4,-1.790861 -4,-4 0,-2.209139 1.790861,-4 4,-4 2.209139,0 4,1.790861 4,4 z" style="fill:#222"/><circle id="circle12" cx="52" cy="31" r="1" d="m 53,31 c 0,0.552285 -0.447715,1 -1,1 -0.552285,0 -1,-0.447715 -1,-1 0,-0.552285 0.447715,-1 1,-1 0.552285,0 1,0.447715 1,1 z" style="fill:#09c"/><circle id="circle14" cx="153.5" cy="29.5" r="7.5" d="m 161,29.5 c 0,4.142136 -3.35786,7.5 -7.5,7.5 -4.14214,0 -7.5,-3.357864 -7.5,-7.5 0,-4.142136 3.35786,-7.5 7.5,-7.5 4.14214,0 7.5,3.357864 7.5,7.5 z" style="fill:#222"/><path id="path16" d="m 150.5,27 c 0.3,0 0.5,-0.2 0.5,-0.5 0,-0.3 -0.2,-0.5 -0.5,-0.5 -0.3,0 -0.5,0.2 -0.5,0.5 0,0.3 0.2,0.5 0.5,0.5 z m 6,-1 c -0.3,0 -0.5,0.2 -0.5,0.5 0,0.3 0.2,0.5 0.5,0.5 0.3,0 0.5,-0.2 0.5,-0.5 0,-0.3 -0.2,-0.5 -0.5,-0.5 z m 2,3 c -0.3,0 -0.5,0.2 -0.5,0.5 0,0.3 0.2,0.5 0.5,0.5 0.3,0 0.5,-0.2 0.5,-0.5 0,-0.3 -0.2,-0.5 -0.5,-0.5 z m -2,3 c -0.3,0 -0.5,0.2 -0.5,0.5 0,0.3 0.2,0.5 0.5,0.5 0.3,0 0.5,-0.2 0.5,-0.5 0,-0.3 -0.2,-0.5 -0.5,-0.5 z m -3,2 c -0.3,0 -0.5,0.2 -0.5,0.5 0,0.3 0.2,0.5 0.5,0.5 0.3,0 0.5,-0.2 0.5,-0.5 0,-0.3 -0.2,-0.5 -0.5,-0.5 z m -2,-5 c -0.3,0 -0.5,0.2 -0.5,0.5 0,0.3 0.2,0.5 0.5,0.5 0.3,0 0.5,-0.2 0.5,-0.5 0,-0.3 -0.2,-0.5 -0.5,-0.5 z m 4,0 c -0.3,0 -0.5,0.2 -0.5,0.5 0,0.3 0.2,0.5 0.5,0.5 0.3,0 0.5,-0.2 0.5,-0.5 0,-0.3 -0.2,-0.5 -0.5,-0.5 z m -2,-2 c -0.3,0 -0.5,0.2 -0.5,0.5 0,0.3 0.2,0.5 0.5,0.5 0.3,0 0.5,-0.2 0.5,-0.5 0,-0.3 -0.2,-0.5 -0.5,-0.5 z m 0,4 c -0.3,0 -0.5,0.2 -0.5,0.5 0,0.3 0.2,0.5 0.5,0.5 0.3,0 0.5,-0.2 0.5,-0.5 0,-0.3 -0.2,-0.5 -0.5,-0.5 z m -3,1 c -0.3,0 -0.5,0.2 -0.5,0.5 0,0.3 0.2,0.5 0.5,0.5 0.3,0 0.5,-0.2 0.5,-0.5 0,-0.3 -0.2,-0.5 -0.5,-0.5 z m -2,-3 c -0.3,0 -0.5,0.2 -0.5,0.5 0,0.3 0.2,0.5 0.5,0.5 0.3,0 0.5,-0.2 0.5,-0.5 0,-0.3 -0.2,-0.5 -0.5,-0.5 z m 5,-5 c -0.3,0 -0.5,0.2 -0.5,0.5 0,0.3 0.2,0.5 0.5,0.5 0.3,0 0.5,-0.2 0.5,-0.5 0,-0.3 -0.2,-0.5 -0.5,-0.5 z"/></g><path id="path18" d="M 20,86 H 380 V 726 H 20 z" clip-rule="evenodd" style="fill:#fafafa;fill-rule:evenodd"/></svg>